<svg width="24" height="24" viewBox="0 0 24 24" fill="none" xmlns="http://www.w3.org/2000/svg">
<path fill-rule="evenodd" clip-rule="evenodd" d="M5 22C3.34315 22 2 20.6569 2 19V11.3361C2 10.4856 2.36096 9.67513 2.99311 9.1062L9.9931 2.80621C11.134 1.77938 12.866 1.77938 14.0069 2.8062L21.0069 9.1062C21.639 9.67513 22 10.4856 22 11.3361V19C22 20.6569 20.6569 22 19 22H5ZM20.5 11.3361V19C20.5 19.8284 19.8284 20.5 19 20.5H16V15C16 13.3431 14.6569 12 13 12H11C9.34315 12 8 13.3431 8 15V20.5H5C4.17157 20.5 3.5 19.8284 3.5 19V11.3361C3.5 10.9109 3.68048 10.5056 3.99655 10.2211L10.9966 3.92115C11.567 3.40773 12.433 3.40773 13.0034 3.92115L20.0034 10.2211C20.3195 10.5056 20.5 10.9109 20.5 11.3361ZM9.5 20.5V15C9.5 14.1716 10.1716 13.5 11 13.5H13C13.8284 13.5 14.5 14.1716 14.5 15V20.5H9.5Z" fill="black"/>
</svg>
