<svg width="24" height="24" viewBox="0 0 24 24" fill="none" xmlns="http://www.w3.org/2000/svg">
<path d="M19.22 9.21999L17.89 10.01L12.61 13.14C12.21 13.36 11.71 13.36 11.32 13.14L6.04001 10.01L4.71003 9.21999C3.82003 8.69999 3.82003 7.36005 4.71003 6.84005L11.33 2.91C11.73 2.69 12.23 2.69 12.62 2.91L19.24 6.84005C20.11 7.36005 20.11 8.70999 19.22 9.21999Z" stroke="black" stroke-width="1.5" stroke-linecap="round" stroke-linejoin="round"/>
<path d="M19.83 11.59C20 12.17 19.8 12.85 19.22 13.19L12.6 17.12C12.2 17.34 11.7 17.34 11.31 17.12L4.69001 13.19C4.15001 12.87 3.94001 12.25 4.06001 11.69" stroke="black" stroke-width="1.5" stroke-linecap="round" stroke-linejoin="round"/>
<path d="M19.85 15.62C19.99 16.19 19.78 16.83 19.23 17.16L12.61 21.09C12.21 21.31 11.71 21.31 11.32 21.09L4.70001 17.16C4.19001 16.86 3.97002 16.29 4.05002 15.76" stroke="black" stroke-width="1.5" stroke-linecap="round" stroke-linejoin="round"/>
</svg>
