<svg width="24" height="24" viewBox="0 0 24 24" fill="none" xmlns="http://www.w3.org/2000/svg">
<path d="M20.49 7.90001C20.4786 8.25797 20.3819 8.60804 20.208 8.92111C20.0341 9.23419 19.7879 9.50122 19.49 9.70001L13 13.53C12.6951 13.7037 12.3509 13.7966 12 13.8C11.6493 13.8058 11.3035 13.7159 11 13.54L4.52002 9.70001C4.22094 9.50243 3.9739 9.23568 3.79982 8.92234C3.62575 8.609 3.52977 8.25832 3.52002 7.90001C3.53136 7.54341 3.62809 7.19473 3.80209 6.88326C3.9761 6.57179 4.2223 6.30662 4.52002 6.11001L11 2.26001C11.3059 2.09014 11.6501 2.00101 12 2.00101C12.3499 2.00101 12.6941 2.09014 13 2.26001L19.48 6.11001C19.7826 6.30232 20.033 6.56628 20.2092 6.87851C20.3854 7.19074 20.4818 7.5416 20.49 7.90001Z" fill="black"/>
<path d="M20.49 12C20.4951 12.3599 20.4054 12.7148 20.2299 13.029C20.0543 13.3432 19.7991 13.6057 19.49 13.79L13 17.63C12.6949 17.8033 12.3508 17.8962 12 17.9C11.6504 17.8967 11.3069 17.8074 11 17.64L4.51999 13.79C4.20728 13.6097 3.94921 13.348 3.77316 13.0329C3.5971 12.7178 3.50962 12.3608 3.51999 12C3.51944 11.7114 3.57726 11.4257 3.68999 11.16L3.78999 11.23L10.29 15.1C10.8165 15.3918 11.408 15.5466 12.01 15.55C12.6258 15.55 13.2303 15.3842 13.76 15.07L20.24 11.23L20.33 11.17C20.4393 11.4329 20.4937 11.7153 20.49 12Z" fill="black"/>
<path d="M20.49 16.09C20.4959 16.4514 20.4066 16.808 20.231 17.1239C20.0555 17.4399 19.7999 17.7041 19.49 17.89L13 21.73C12.6949 21.9033 12.3508 21.9962 12 22C11.6504 21.9967 11.3069 21.9074 11 21.74L4.51999 17.89C4.20575 17.7089 3.9467 17.4457 3.77055 17.1286C3.5944 16.8115 3.50779 16.4525 3.51999 16.09C3.52024 15.8047 3.57806 15.5224 3.68999 15.26L3.78999 15.33L10.29 19.19C10.8147 19.4864 11.4074 19.6415 12.01 19.64C12.6264 19.6446 13.2321 19.4784 13.76 19.16L20.24 15.33L20.33 15.27C20.4382 15.5297 20.4927 15.8087 20.49 16.09Z" fill="black"/>
</svg>
