<svg width="24" height="24" viewBox="0 0 24 24" fill="none" xmlns="http://www.w3.org/2000/svg">
<path fill-rule="evenodd" clip-rule="evenodd" d="M12 12.5C13.3807 12.5 14.5 11.3807 14.5 10C14.5 8.61929 13.3807 7.5 12 7.5C10.6193 7.5 9.5 8.61929 9.5 10C9.5 11.3807 10.6193 12.5 12 12.5ZM12 14C14.2091 14 16 12.2091 16 10C16 7.79086 14.2091 6 12 6C9.79086 6 8 7.79086 8 10C8 12.2091 9.79086 14 12 14Z" fill="black"/>
<path fill-rule="evenodd" clip-rule="evenodd" d="M18.5588 19.5488C20.6672 17.7154 22 15.0134 22 12C22 6.47715 17.5228 2 12 2C6.47715 2 2 6.47715 2 12C2 15.0134 3.33284 17.7154 5.44116 19.5488C7.19693 21.0756 9.49052 22 12 22C14.4162 22 16.6323 21.143 18.3609 19.7165C18.4276 19.6614 18.4936 19.6055 18.5588 19.5488ZM12.3286 20.4938C12.2196 20.4979 12.11 20.5 12 20.5C11.9908 20.5 11.9817 20.5 11.9725 20.5C11.89 20.4997 11.8079 20.4983 11.726 20.4957C10.1032 20.4443 8.5952 19.938 7.32524 19.1002C8.2965 17.5379 10.0284 16.5 12 16.5C13.9716 16.5 15.7035 17.5379 16.6748 19.1002C15.419 19.9286 13.9306 20.4329 12.3286 20.4938ZM17.8549 18.162C16.604 16.2575 14.4488 15 12 15C9.55115 15 7.396 16.2575 6.14504 18.162C4.51575 16.6134 3.5 14.4253 3.5 12C3.5 7.30558 7.30558 3.5 12 3.5C16.6944 3.5 20.5 7.30558 20.5 12C20.5 14.4253 19.4842 16.6134 17.8549 18.162Z" fill="black"/>
</svg>
