<svg width="24" height="24" viewBox="0 0 24 24" fill="none" xmlns="http://www.w3.org/2000/svg">
<path d="M11.8 12.46C13.1641 12.46 14.27 11.3541 14.27 9.98999C14.27 8.62585 13.1641 7.51999 11.8 7.51999C10.4359 7.51999 9.33 8.62585 9.33 9.98999C9.33 11.3541 10.4359 12.46 11.8 12.46Z" stroke="black" stroke-width="1.5" stroke-linecap="round" stroke-linejoin="round"/>
<path d="M6.82001 19.29V17.88C6.82001 16.24 8.15 14.92 9.78 14.92H14.21C15.85 14.92 17.17 16.25 17.17 17.88V19.29" stroke="black" stroke-width="1.5" stroke-linecap="round" stroke-linejoin="round"/>
<path d="M12 21.25C17.1086 21.25 21.25 17.1086 21.25 12C21.25 6.89137 17.1086 2.75 12 2.75C6.89137 2.75 2.75 6.89137 2.75 12C2.75 17.1086 6.89137 21.25 12 21.25Z" stroke="black" stroke-width="1.5" stroke-linecap="round" stroke-linejoin="round"/>
</svg>
